<svg width="16" height="16" viewBox="0 0 16 16" fill="none" xmlns="http://www.w3.org/2000/svg">
<g id="SVG" clip-path="url(#clip0_132_308)">
<path id="Vector" d="M8 15C6.56944 15.0023 5.17287 14.5641 4 13.745V13C4 12.2044 4.31607 11.4413 4.87868 10.8787C5.44129 10.3161 6.20435 10 7 10H9C9.79565 10 10.5587 10.3161 11.1213 10.8787C11.6839 11.4413 12 12.2044 12 13V13.745C10.8271 14.564 9.43055 15.0022 8 15ZM7 9C5.95624 8.99967 4.95369 9.40735 4.20635 10.136C3.45902 10.8647 3.0261 11.8566 3 12.9C2.03505 11.9155 1.38224 10.6681 1.12346 9.3141C0.864671 7.9601 1.01143 6.55983 1.54532 5.28891C2.07922 4.01799 2.97648 2.933 4.12458 2.17001C5.27267 1.40702 6.6205 1 7.999 1C9.37751 1 10.7253 1.40702 11.8734 2.17001C13.0215 2.933 13.9188 4.01799 14.4527 5.28891C14.9866 6.55983 15.1333 7.9601 14.8745 9.3141C14.6158 10.6681 13.963 11.9155 12.998 12.9C12.9719 11.8566 12.539 10.8647 11.7917 10.136C11.0443 9.40735 10.0418 8.99967 8.998 9H7ZM3.25501e-06 8C-0.00107965 9.19942 0.268054 10.3837 0.787418 11.4648C1.30678 12.546 2.06303 13.4962 3 14.245C4.41756 15.3834 6.1819 16.0027 8 16C9.892 16 11.63 15.343 13 14.245C14.0561 13.3994 14.8806 12.2998 15.3962 11.049C15.9118 9.79814 16.1018 8.43697 15.9484 7.09276C15.795 5.74855 15.3031 4.46521 14.5189 3.36275C13.7347 2.2603 12.6836 1.37474 11.4641 0.788899C10.2446 0.20306 8.89641 -0.0639246 7.54565 0.0129142C6.1949 0.0897531 4.88569 0.507905 3.74047 1.22826C2.59526 1.94862 1.65144 2.94766 0.997282 4.13194C0.343126 5.31622 3.59352e-06 6.64706 3.25501e-06 8ZM9.5 5.5C9.5 5.10217 9.34197 4.72064 9.06066 4.43934C8.77936 4.15803 8.39783 4 8 4C7.60218 4 7.22065 4.15803 6.93934 4.43934C6.65804 4.72064 6.5 5.10217 6.5 5.5C6.5 5.89782 6.65804 6.27936 6.93934 6.56066C7.22065 6.84196 7.60218 7 8 7C8.39783 7 8.77936 6.84196 9.06066 6.56066C9.34197 6.27936 9.5 5.89782 9.5 5.5ZM10.5 5.5C10.5 6.16304 10.2366 6.79893 9.76777 7.26777C9.29893 7.73661 8.66304 8 8 8C7.33696 8 6.70108 7.73661 6.23224 7.26777C5.7634 6.79893 5.5 6.16304 5.5 5.5C5.5 4.83696 5.7634 4.20107 6.23224 3.73223C6.70108 3.26339 7.33696 3 8 3C8.66304 3 9.29893 3.26339 9.76777 3.73223C10.2366 4.20107 10.5 4.83696 10.5 5.5Z" fill="white"/>
</g>
<defs>
<clipPath id="clip0_132_308">
<rect width="16" height="16" fill="white"/>
</clipPath>
</defs>
</svg>
